<svg xmlns="http://www.w3.org/2000/svg" viewBox="0 0 512 512" role="img" aria-labelledby="title desc">
  <title id="title">Bharat Micro Lab Logo</title>
  <desc id="desc">Stylized letter B with colorful energy arcs and plug icons.</desc>
  <defs>
    <linearGradient id="blueArc" x1="0%" y1="0%" x2="100%" y2="0%">
      <stop stop-color="#12b8ff" offset="0%" />
      <stop stop-color="#0065ff" offset="100%" />
    </linearGradient>
    <linearGradient id="orangeArc" x1="0%" y1="0%" x2="100%" y2="0%">
      <stop stop-color="#ffb347" offset="0%" />
      <stop stop-color="#ff6a00" offset="100%" />
    </linearGradient>
    <linearGradient id="greenArc" x1="0%" y1="0%" x2="100%" y2="0%">
      <stop stop-color="#a8ff3e" offset="0%" />
      <stop stop-color="#00a651" offset="100%" />
    </linearGradient>
  </defs>
  <circle cx="256" cy="256" r="230" fill="none" stroke="#f0f4ff" stroke-width="20" />
  <path d="M120 345c-30-50-25-124 13-177" fill="none" stroke="url(#blueArc)" stroke-width="28" stroke-linecap="round" />
  <path d="M384 154c41 50 49 115 23 165" fill="none" stroke="url(#orangeArc)" stroke-width="28" stroke-linecap="round" />
  <path d="M155 380c55 42 130 50 198 18" fill="none" stroke="url(#greenArc)" stroke-width="28" stroke-linecap="round" />
  <g fill="#0e1b2c">
    <path d="M196 151h98c44 0 72 25 72 60 0 26-17 45-42 52 29 6 48 28 48 58 0 39-31 68-82 68h-94zm56 92h38c16 0 26-9 26-22s-10-21-26-21h-38zm0 108h42c17 0 27-9 27-24s-10-23-27-23h-42z" />
  </g>
  <g fill="#12b8ff" transform="translate(90 160)">
    <rect x="-18" y="-18" width="36" height="18" rx="4" />
    <rect x="-12" y="-34" width="6" height="20" rx="2" />
    <rect x="6" y="-34" width="6" height="20" rx="2" />
  </g>
  <g fill="#ffb347" transform="translate(410 160) rotate(30)">
    <rect x="-18" y="-18" width="36" height="18" rx="4" />
    <rect x="-12" y="-34" width="6" height="20" rx="2" />
    <rect x="6" y="-34" width="6" height="20" rx="2" />
  </g>
  <g fill="#a8ff3e" transform="translate(360 360) rotate(160)">
    <rect x="-18" y="-18" width="36" height="18" rx="4" />
    <rect x="-12" y="-34" width="6" height="20" rx="2" />
    <rect x="6" y="-34" width="6" height="20" rx="2" />
  </g>
</svg>
